<?xml version="1.0" encoding="UTF-8"?>
<svg version="1.1" xmlns="http://www.w3.org/2000/svg" width="93" height="76">
<path d="M0 0 C1.19399414 0.00483398 1.19399414 0.00483398 2.41210938 0.00976562 C3.22873047 0.01814453 4.04535156 0.02652344 4.88671875 0.03515625 C5.72267578 0.03966797 6.55863281 0.04417969 7.41992188 0.04882812 C9.47138524 0.06055077 11.52281148 0.07848422 13.57421875 0.09765625 C13.61160156 1.03867187 13.64898438 1.9796875 13.6875 2.94921875 C13.78611328 4.81707031 13.78611328 4.81707031 13.88671875 6.72265625 C13.94472656 7.95242187 14.00273437 9.1821875 14.0625 10.44921875 C14.59791077 14.26657491 15.70480078 16.75769356 17.57421875 20.09765625 C17.90421875 21.02578125 18.23421875 21.95390625 18.57421875 22.91015625 C18.90421875 23.63203125 19.23421875 24.35390625 19.57421875 25.09765625 C20.56421875 25.42765625 21.55421875 25.75765625 22.57421875 26.09765625 C23.06921875 27.58265625 23.06921875 27.58265625 23.57421875 29.09765625 C24.23421875 29.09765625 24.89421875 29.09765625 25.57421875 29.09765625 C25.98671875 29.57203125 26.39921875 30.04640625 26.82421875 30.53515625 C29.24319915 32.69496018 31.40639197 32.7016779 34.57421875 33.09765625 C35.56421875 33.42765625 36.55421875 33.75765625 37.57421875 34.09765625 C37.57421875 34.75765625 37.57421875 35.41765625 37.57421875 36.09765625 C51.43421875 36.59265625 51.43421875 36.59265625 65.57421875 37.09765625 C66.69921875 48.34765625 66.69921875 48.34765625 66.671875 53.98046875 C66.66704102 55.759375 66.66704102 55.759375 66.66210938 57.57421875 C66.64954102 59.38019531 66.64954102 59.38019531 66.63671875 61.22265625 C66.63220703 62.4653125 66.62769531 63.70796875 66.62304688 64.98828125 C66.61136811 68.02476075 66.59343673 71.06121511 66.57421875 74.09765625 C58.65421875 74.09765625 50.73421875 74.09765625 42.57421875 74.09765625 C42.07921875 65.18765625 42.07921875 65.18765625 41.57421875 56.09765625 C39.11984375 55.64390625 36.66546875 55.19015625 34.13671875 54.72265625 C31.9430959 54.30932638 29.75028555 53.89199038 27.55761719 53.47363281 C25.91084489 53.16146771 24.26227443 52.85880623 22.61328125 52.55859375 C18.36932277 51.72672149 16.72757889 51.25101639 13.57421875 48.09765625 C13.57421875 56.67765625 13.57421875 65.25765625 13.57421875 74.09765625 C5.98421875 74.09765625 -1.60578125 74.09765625 -9.42578125 74.09765625 C-9.42578125 50.00765625 -9.42578125 25.91765625 -9.42578125 1.09765625 C-5.92999552 0.3984991 -3.43171332 -0.02468859 0 0 Z " fill="#121212" transform="translate(9.42578125,0.90234375)"/>
<path d="M0 0 C7.92 0 15.84 0 24 0 C24 4.62 24 9.24 24 14 C26.21354167 13.96744792 28.42708333 13.93489583 30.640625 13.90234375 C33 14 33 14 37 15 C37.495 24.405 37.495 24.405 38 34 C33.69471529 34.0460732 29.39029632 34.08584869 25.08496094 34.10986328 C23.62236624 34.11988105 22.15979137 34.13349912 20.69726562 34.15087891 C18.58718961 34.17531439 16.47737988 34.18652537 14.3671875 34.1953125 C12.46622314 34.21102295 12.46622314 34.21102295 10.52685547 34.22705078 C6.93778609 33.99599481 4.24982892 33.54594039 1 32 C-0.60557466 28.8258434 -0.1135629 24.98383735 -0.09765625 21.484375 C-0.09443359 20.23398437 -0.09121094 18.98359375 -0.08789062 17.6953125 C-0.07951172 16.39335937 -0.07113281 15.09140625 -0.0625 13.75 C-0.05798828 12.43257812 -0.05347656 11.11515625 -0.04882812 9.7578125 C-0.03704326 6.50518896 -0.0191079 3.25258876 0 0 Z " fill="#B5D343" transform="translate(52,0)"/>
<path d="M0 0 C1.70736328 -0.02126953 1.70736328 -0.02126953 3.44921875 -0.04296875 C6.3125 0.1875 6.3125 0.1875 8.3125 2.1875 C3.3625 2.1875 -1.5875 2.1875 -6.6875 2.1875 C-6.6875 25.9475 -6.6875 49.7075 -6.6875 74.1875 C-8.3375 74.1875 -9.9875 74.1875 -11.6875 74.1875 C-11.6875 50.0975 -11.6875 26.0075 -11.6875 1.1875 C-7.5642399 0.36284798 -4.16153759 0.02372598 0 0 Z " fill="#181818" transform="translate(11.6875,0.8125)"/>
<path d="M0 0 C0.53367187 0.37511719 1.06734375 0.75023437 1.6171875 1.13671875 C14.39033538 9.90997084 26.52394772 13.84507073 42 15 C42 20.94 42 26.88 42 33 C45.63 33 49.26 33 53 33 C53.33 33.99 53.66 34.98 54 36 C51.59940183 37.20029908 50.10639351 37.11459743 47.4296875 37.09765625 C46.53378906 37.09443359 45.63789062 37.09121094 44.71484375 37.08789062 C43.30912109 37.07532227 43.30912109 37.07532227 41.875 37.0625 C40.93011719 37.05798828 39.98523437 37.05347656 39.01171875 37.04882812 C36.6744523 37.03702375 34.33721831 37.01908799 32 37 C31.67 31.06 31.34 25.12 31 19 C29.74445312 18.63648437 28.48890625 18.27296875 27.1953125 17.8984375 C7.31224311 11.99326315 7.31224311 11.99326315 2 7 C0.66891681 4.51363706 0.34175237 2.84793643 0 0 Z " fill="#050707" transform="translate(20,38)"/>
<path d="M0 0 C4 3 4 3 4.51898193 5.82841492 C4.52786438 6.9764711 4.53674683 8.12452728 4.54589844 9.30737305 C4.56561707 10.60849533 4.58533569 11.90961761 4.60565186 13.25016785 C4.60731503 14.67068438 4.60854589 16.09120148 4.609375 17.51171875 C4.62435422 18.96476591 4.64108083 20.41779602 4.65948486 21.87080383 C4.70320056 25.6930519 4.72316647 29.51507031 4.73822021 33.33752441 C4.75777638 37.23882655 4.79974792 41.13988009 4.83984375 45.04101562 C4.91519132 52.69394366 4.96545484 60.34676751 5 68 C5.68707031 67.95359375 6.37414062 67.9071875 7.08203125 67.859375 C7.98308594 67.82328125 8.88414063 67.7871875 9.8125 67.75 C10.70582031 67.70359375 11.59914063 67.6571875 12.51953125 67.609375 C15 68 15 68 18 72 C12.06 72 6.12 72 0 72 C0 48.24 0 24.48 0 0 Z " fill="#060808" transform="translate(5,3)"/>
<path d="M0 0 C7.92 0 15.84 0 24 0 C24 0.66 24 1.32 24 2 C18.06 2 12.12 2 6 2 C6 10.91 6 19.82 6 29 C6.99 28.67 7.98 28.34 9 28 C9.66 28.66 10.32 29.32 11 30 C13.52037964 30.37135915 13.52037964 30.37135915 16.4453125 30.4140625 C18.05986328 30.47207031 18.05986328 30.47207031 19.70703125 30.53125 C21.39892578 30.57765625 21.39892578 30.57765625 23.125 30.625 C24.82849609 30.68300781 24.82849609 30.68300781 26.56640625 30.7421875 C29.37732987 30.83667233 32.18864304 30.91943321 35 31 C35.33 25.72 35.66 20.44 36 15 C36.33 15 36.66 15 37 15 C37.495 24.405 37.495 24.405 38 34 C33.69471529 34.0460732 29.39029632 34.08584869 25.08496094 34.10986328 C23.62236624 34.11988105 22.15979137 34.13349912 20.69726562 34.15087891 C18.58718961 34.17531439 16.47737988 34.18652537 14.3671875 34.1953125 C12.46622314 34.21102295 12.46622314 34.21102295 10.52685547 34.22705078 C6.93778609 33.99599481 4.24982892 33.54594039 1 32 C-0.60557466 28.8258434 -0.1135629 24.98383735 -0.09765625 21.484375 C-0.09443359 20.23398437 -0.09121094 18.98359375 -0.08789062 17.6953125 C-0.07951172 16.39335937 -0.07113281 15.09140625 -0.0625 13.75 C-0.05798828 12.43257812 -0.05347656 11.11515625 -0.04882812 9.7578125 C-0.03704326 6.50518896 -0.0191079 3.25258876 0 0 Z " fill="#51622B" transform="translate(52,0)"/>
<path d="M0 0 C0.76803955 0.79003418 1.5360791 1.58006836 2.32739258 2.39404297 C8.89619838 8.79903367 18.24650201 11.79225936 27 14 C23.18716232 15.27094589 21.09166831 14.56479448 17.1875 13.6875 C15.98480469 13.42324219 14.78210938 13.15898438 13.54296875 12.88671875 C10.27814918 12.06961396 7.13584228 11.22340035 4 10 C3.67 9.34 3.34 8.68 3 8 C3 16.25 3 24.5 3 33 C2.01 32.34 1.02 31.68 0 31 C-0.34057617 27.92724609 -0.34057617 27.92724609 -0.29296875 24.0234375 C-0.28872391 23.33819 -0.28447906 22.6529425 -0.28010559 21.94692993 C-0.26329753 19.75588871 -0.22564405 17.56576368 -0.1875 15.375 C-0.17245579 13.89063827 -0.15876693 12.40626215 -0.14648438 10.921875 C-0.1133879 7.28095167 -0.06159207 3.64056522 0 0 Z " fill="#161617" transform="translate(20,41)"/>
<path d="M0 0 C2.97 0.495 2.97 0.495 6 1 C6 6.94 6 12.88 6 19 C4.02 19 2.04 19 0 19 C0 12.73 0 6.46 0 0 Z " fill="#141414" transform="translate(52,56)"/>
<path d="M0 0 C0.99 0.33 1.98 0.66 3 1 C3 8.92 3 16.84 3 25 C2.01 25.33 1.02 25.66 0 26 C0 17.42 0 8.84 0 0 Z " fill="#82A33E" transform="translate(58,3)"/>
<path d="M0 0 C0.96679688 0.47050781 1.93359375 0.94101562 2.9296875 1.42578125 C10.15458341 4.89651903 17.18184531 8.0684559 25 10 C21.18716232 11.27094589 19.09166831 10.56479448 15.1875 9.6875 C13.98480469 9.42324219 12.78210938 9.15898438 11.54296875 8.88671875 C8.29216005 8.07312054 5.16077919 7.10845089 2 6 C2 5.34 2 4.68 2 4 C1.34 3.67 0.68 3.34 0 3 C0 2.01 0 1.02 0 0 Z " fill="#1F201F" transform="translate(22,45)"/>
<path d="" fill="#000000" transform="translate(0,0)"/>
<path d="" fill="#000000" transform="translate(0,0)"/>
<path d="" fill="#000000" transform="translate(0,0)"/>
<path d="" fill="#000000" transform="translate(0,0)"/>
<path d="" fill="#000000" transform="translate(0,0)"/>
<path d="" fill="#000000" transform="translate(0,0)"/>
<path d="" fill="#000000" transform="translate(0,0)"/>
<path d="" fill="#000000" transform="translate(0,0)"/>
<path d="" fill="#000000" transform="translate(0,0)"/>
<path d="" fill="#000000" transform="translate(0,0)"/>
<path d="" fill="#000000" transform="translate(0,0)"/>
</svg>
